<svg width="25" height="21" viewBox="0 0 25 21" fill="none" xmlns="http://www.w3.org/2000/svg">
<path d="M9.51236 20.4875L0.762365 11.7375C0.079865 11.055 0.0798652 9.94751 0.762365 9.26251L9.51237 0.512516C10.1949 -0.169985 11.3024 -0.169985 11.9874 0.512516C12.6699 1.19502 12.6699 2.30252 11.9874 2.98752L6.22487 8.75001L22.9999 8.75002C23.9674 8.75002 24.7499 9.53252 24.7499 10.5C24.7499 11.4675 23.9674 12.25 22.9999 12.25L6.22487 12.25L11.9874 18.0125C12.3299 18.355 12.4999 18.8025 12.4999 19.25C12.4999 19.6975 12.3299 20.145 11.9874 20.4875C11.3024 21.17 10.1949 21.17 9.51236 20.4875Z" fill="#363636"/>
</svg>
