<svg width="42" height="34" viewBox="0 0 42 34" fill="none" xmlns="http://www.w3.org/2000/svg">
<path d="M40.9716 1.22818C40.2863 0.54283 39.4624 0.200195 38.5001 0.200195H3.49997C2.5375 0.200195 1.71379 0.542753 1.02798 1.22818C0.342558 1.91367 0 2.73739 0 3.69994V30.2995C0 31.2623 0.342558 32.0861 1.02798 32.7715C1.71379 33.457 2.5375 33.7997 3.49997 33.7997H38.5001C39.4624 33.7997 40.2862 33.457 40.9716 32.7715C41.657 32.0862 42 31.2624 42 30.2995V3.69994C42 2.73739 41.657 1.91367 40.9716 1.22818ZM39.1997 30.3001C39.1997 30.4899 39.1305 30.6535 38.992 30.7925C38.8535 30.9304 38.6894 30.9996 38.5001 30.9996H3.49997C3.3105 30.9996 3.14638 30.9304 3.00786 30.792C2.86941 30.6531 2.80007 30.4894 2.80007 30.2995V16.9999H39.1998V30.3001H39.1997ZM39.1997 8.59964H2.79999V3.69963C2.79999 3.51008 2.8691 3.34635 3.00778 3.20752C3.14638 3.06938 3.3105 3.00004 3.4999 3.00004H38.5C38.6893 3.00004 38.8535 3.06907 38.9919 3.20752C39.1304 3.34635 39.1996 3.51008 39.1996 3.69963V8.59964H39.1997Z" fill="#FFC700"/>
<path d="M11.2015 25.3997H5.60156V28.1999H11.2015V25.3997Z" fill="#FFC700"/>
<path d="M22.3999 25.3997H14V28.1999H22.3999V25.3997Z" fill="#FFC700"/>
</svg>
