<svg width="12" height="12" viewBox="0 0 12 12" fill="none" xmlns="http://www.w3.org/2000/svg">
<path fill-rule="evenodd" clip-rule="evenodd" d="M6 4.6579L10.6668 0.0844795C10.782 -0.0304031 10.9722 -0.0276678 11.0901 0.0899501L11.9099 0.907805C12.0278 1.02542 12.0304 1.21689 11.9153 1.33178L6.217 6.91726C6.15806 6.97743 6.07769 7.00479 6 6.99932C5.91963 7.00205 5.84194 6.9747 5.783 6.91726L0.0847496 1.33178C-0.0304477 1.21689 -0.0277687 1.02542 0.0901076 0.907805L0.909884 0.0899501C1.02776 -0.0276678 1.21797 -0.0304031 1.33317 0.0844795L6 4.6579Z" fill="#303030"/>
<path fill-rule="evenodd" clip-rule="evenodd" d="M6 7.3421L1.33317 11.9155C1.21797 12.0304 1.02776 12.0277 0.909884 11.91L0.090108 11.0922C-0.027768 10.9746 -0.0304479 10.7831 0.0847493 10.6682L5.783 5.08274C5.84194 5.02257 5.92231 4.99521 6 5.00068C6.08037 4.99795 6.15806 5.0253 6.217 5.08274L11.9153 10.6682C12.0304 10.7831 12.0278 10.9746 11.9099 11.0922L11.0901 11.91C10.9722 12.0277 10.782 12.0304 10.6668 11.9155L6 7.3421Z" fill="#303030"/>
</svg>
