<svg width="16" height="20" viewBox="0 0 16 20" fill="none" xmlns="http://www.w3.org/2000/svg">
<path d="M13.714 2.37394H10.64C10.4866 1.03979 9.35526 0 7.98503 0C6.61484 0 5.48365 1.03975 5.3303 2.37394H2.25605C1.01199 2.37394 0 3.38958 0 4.63773V4.75388C0 5.70771 0.591942 6.5241 1.42582 6.85675V17.5507C1.42582 18.7989 2.43793 19.8145 3.68191 19.8145H12.2882C13.5323 19.8145 14.5443 18.7988 14.5443 17.5507V6.85679C15.3781 6.5241 15.9701 5.70771 15.9701 4.75392V4.63777C15.9701 3.38958 14.958 2.37394 13.714 2.37394ZM7.98503 1.07359C8.76434 1.07359 9.41482 1.63402 9.55875 2.37394H6.4116C6.55549 1.63398 7.20601 1.07359 7.98503 1.07359ZM13.4742 17.5507C13.4742 18.207 12.9421 18.741 12.2882 18.741H3.68187C3.02799 18.741 2.49582 18.2069 2.49582 17.5507V7.01767H13.4742V17.5507ZM14.9001 4.75388C14.9001 5.41014 14.3679 5.94412 13.714 5.94412H2.25605C1.60217 5.94412 1.07 5.41014 1.07 4.75388V4.63773C1.07 3.98148 1.60217 3.44749 2.25605 3.44749H13.714C14.3679 3.44749 14.9001 3.98148 14.9001 4.63773V4.75388H14.9001Z" fill="#616161"/>
<path d="M5.11679 17.368C5.41227 17.368 5.65179 17.1276 5.65179 16.8313V10.7873C5.65179 10.4909 5.41222 10.2505 5.11679 10.2505C4.82135 10.2505 4.58179 10.4909 4.58179 10.7873V16.8313C4.58175 17.1277 4.82131 17.368 5.11679 17.368Z" fill="#616161"/>
<path d="M7.98519 17.368C8.28067 17.368 8.52023 17.1276 8.52023 16.8313V10.7873C8.52023 10.4909 8.28059 10.2505 7.98519 10.2505C7.68976 10.2505 7.4502 10.4909 7.4502 10.7873V16.8313C7.4502 17.1277 7.68971 17.368 7.98519 17.368Z" fill="#616161"/>
<path d="M10.8536 17.368C11.1491 17.368 11.3886 17.1276 11.3886 16.8313V10.7873C11.3886 10.4909 11.149 10.2505 10.8536 10.2505C10.5581 10.2505 10.3186 10.4909 10.3186 10.7873V16.8313C10.3186 17.1277 10.5582 17.368 10.8536 17.368Z" fill="#616161"/>
</svg>
