<svg width="16" height="16" viewBox="0 0 16 16" fill="none" xmlns="http://www.w3.org/2000/svg">
<path d="M1.65155 12.6352L3.36572 14.3494L5.04095 13.8708V12.9838L3.81505 12.3709C3.81505 12.3709 3.81504 12.3709 3.81504 12.3709C3.73503 12.3309 3.67001 12.2659 3.63003 12.1859M1.65155 12.6352L3.67475 12.1635M1.65155 12.6352L2.13012 10.96M1.65155 12.6352L2.13012 10.96M3.63003 12.1859L3.67475 12.1635M3.63003 12.1859L3.63003 12.1859L3.67475 12.1635M3.63003 12.1859L3.0171 10.96M3.67475 12.1635L3.048 10.91M3.0171 10.96H3.048V10.91M3.0171 10.96H2.13012M3.0171 10.96L3.00328 10.9323L3.048 10.91M3.048 10.91L2.13012 10.96M2.13012 10.96L2.14048 10.9237L2.0924 10.91V10.96H2.13012ZM11.2988 0.379598L11.2987 0.379759L1.5246 10.2503C1.47529 10.3 1.43977 10.3611 1.42044 10.428L1.42039 10.4281L-0.0341207 15.5233C-0.0341213 15.5233 -0.0341219 15.5233 -0.0341224 15.5233C-0.0753525 15.6677 -0.0349291 15.8233 0.0712769 15.9296C0.150021 16.0084 0.255493 16.0509 0.363762 16.0509C0.401733 16.0509 0.440063 16.0456 0.477156 16.0351L0.477292 16.0351L5.56816 14.5793L5.5683 14.5793C5.63519 14.5599 5.69617 14.5244 5.74586 14.475C5.74587 14.475 5.74588 14.475 5.74588 14.475L15.6091 4.6916L15.6093 4.69144C15.8935 4.40699 16.05 4.02889 16.05 3.62683C16.05 3.22477 15.8935 2.84664 15.6093 2.56219L13.4274 0.378543C12.8582 -0.191194 11.8702 -0.192249 11.2988 0.379598ZM2.81044 10.1327L9.74974 3.13098L11.0174 4.39864L4.11337 11.3027L3.64284 10.3614L3.64281 10.3613C3.57255 10.2212 3.42959 10.1327 3.27283 10.1327H2.81044ZM5.09095 13.9084V13.9086L5.04095 13.9228L5.09095 13.9084ZM5.63963 12.3581L4.69827 11.8876L11.6023 4.98358L12.87 6.25125L5.86828 13.1905V12.7282C5.86828 12.5714 5.77979 12.4284 5.63969 12.3582L5.63963 12.3581ZM0.966021 15.035L1.39162 13.5451L2.45582 14.6093L0.966021 15.035ZM15.0254 4.11507L13.4575 5.66895L10.332 2.54344L11.8848 0.976656C12.1402 0.721309 12.5872 0.721309 12.8425 0.976656L15.0243 3.15846C15.1524 3.28651 15.2228 3.45632 15.2228 3.6373C15.2228 3.81833 15.1523 3.98812 15.0254 4.11507Z" fill="#FFC700" stroke="#FFC700" stroke-width="0.1"/>
</svg>
