<svg width="15" height="15" viewBox="0 0 15 15" fill="none" xmlns="http://www.w3.org/2000/svg">
<path d="M1.55184 11.8447L3.15627 13.4491L4.72277 13.0016V12.1743L3.57521 11.6006C3.57521 11.6006 3.57521 11.6006 3.5752 11.6006C3.49959 11.5628 3.43815 11.5013 3.40036 11.4257M1.55184 11.8447L3.44508 11.4034M1.55184 11.8447L1.99934 10.2782M1.55184 11.8447L1.99934 10.2782M3.40036 11.4257L3.44508 11.4034M3.40036 11.4257L3.40036 11.4257L3.44508 11.4034M3.40036 11.4257L2.82659 10.2782M3.44508 11.4034L2.8575 10.2282M2.82659 10.2782H2.8575V10.2282M2.82659 10.2782H1.99934M2.82659 10.2782L2.81278 10.2505L2.8575 10.2282M2.8575 10.2282L1.99934 10.2782M1.99934 10.2782L2.0097 10.2419L1.96162 10.2282V10.2782H1.99934ZM10.5904 0.353726L10.5903 0.353886L1.42709 9.60748C1.38049 9.65449 1.34693 9.71219 1.32866 9.7754L1.32861 9.77556L-0.034993 14.5523C-0.0349936 14.5523 -0.0349942 14.5523 -0.0349947 14.5523C-0.07396 14.6888 -0.0357567 14.8358 0.0646113 14.9363C0.139028 15.0108 0.238707 15.0509 0.341027 15.0509C0.376912 15.0509 0.413132 15.0459 0.448184 15.036L0.448321 15.036L5.22101 13.6712L5.22115 13.6711C5.28435 13.6529 5.34199 13.6193 5.38895 13.5726C5.38895 13.5726 5.38896 13.5726 5.38897 13.5726L14.6357 4.40065L14.6359 4.40049C14.9029 4.13323 15.05 3.77797 15.05 3.40021C15.05 3.02246 14.9029 2.66716 14.6359 2.3999L12.5904 0.352736C12.0556 -0.182614 11.1273 -0.183603 10.5904 0.353726ZM2.64228 9.49635L9.14039 2.93978L10.3244 4.12379L3.85714 10.5911L3.41796 9.71243L3.41793 9.71237C3.35153 9.57998 3.21642 9.49635 3.06827 9.49635H2.64228ZM4.77277 13.0392V13.0393L4.72277 13.0536L4.77277 13.0392ZM5.28855 11.583L4.4099 11.1439L10.8772 4.67659L12.0612 5.8606L5.50463 12.3587V11.9327C5.50463 11.7846 5.42101 11.6495 5.28861 11.5831L5.28855 11.583ZM0.910194 14.0908L1.30619 12.7046L2.29636 13.6948L0.910194 14.0908ZM14.0841 3.85573L12.6164 5.31029L9.69067 2.38453L11.1442 0.917886C11.3824 0.679718 11.7995 0.679718 12.0377 0.917886L14.0831 2.96333C14.2026 3.08279 14.2682 3.24119 14.2682 3.41003C14.2682 3.57889 14.2025 3.73726 14.0841 3.85568C14.0841 3.8557 14.0841 3.85572 14.0841 3.85573Z" fill="#616161" stroke="#616161" stroke-width="0.1"/>
</svg>
