<svg width="17" height="18" viewBox="0 0 17 18" fill="none" xmlns="http://www.w3.org/2000/svg">
<path fill-rule="evenodd" clip-rule="evenodd" d="M15.0856 0.350317C15.0903 0.259406 15.0583 0.166963 14.9889 0.0975396C14.9194 0.0281159 14.827 -0.00389759 14.7361 0.000799505L14.7302 0.000450556C14.7268 0.000225536 14.7234 0 14.72 0H12.7045C12.5205 0 12.3714 0.149141 12.3714 0.333127C12.3714 0.517113 12.5205 0.666254 12.7045 0.666254H13.949L10.6558 3.95948L9.4139 2.71758C9.35144 2.65512 9.26669 2.62001 9.17835 2.62001C9.09 2.62001 9.00525 2.65512 8.94279 2.71758L2.9542 8.70621C2.82411 8.8363 2.82411 9.04723 2.9542 9.17735C3.01926 9.24235 3.10451 9.27486 3.18975 9.27486C3.275 9.27486 3.36028 9.24235 3.42531 9.17729L9.17835 3.42421L10.4202 4.66611C10.5503 4.7962 10.7613 4.7962 10.8914 4.66611L14.4201 1.1374V2.2637C14.4201 2.44769 14.5693 2.59683 14.7533 2.59683C14.9373 2.59683 15.0864 2.44769 15.0864 2.2637V0.36644C15.0864 0.363028 15.0862 0.35967 15.0859 0.356306L15.0856 0.350317ZM15.8168 16.3897H15.0862V5.7808C15.0862 5.287 14.6844 4.88528 14.1907 4.88528H12.5575C12.0637 4.88528 11.662 5.28703 11.662 5.7808V16.3897H9.80676V10.5875C9.80676 10.0937 9.40505 9.69194 8.91125 9.69194H7.27813C6.78433 9.69194 6.38262 10.0937 6.38262 10.5875V16.3897H4.52736V13.3848C4.52736 12.891 4.12561 12.4892 3.63185 12.4892H1.9987C1.5049 12.4892 1.10318 12.891 1.10318 13.3848V16.3897H0.333127C0.149141 16.3897 0 16.5388 0 16.7228C0 16.9068 0.149141 17.056 0.333127 17.056H15.8168C16.0008 17.056 16.1499 16.9068 16.1499 16.7228C16.1499 16.5388 16.0008 16.3897 15.8168 16.3897ZM3.86104 16.3897H1.76941V13.3848C1.76941 13.2583 1.87224 13.1555 1.99866 13.1555H3.63179C3.75821 13.1555 3.86104 13.2583 3.86104 13.3848V16.3897ZM9.14048 16.3897H7.04884V10.5875C7.04884 10.461 7.15167 10.3582 7.2781 10.3582H8.91122C9.03761 10.3582 9.14048 10.461 9.14048 10.5875V16.3897ZM14.4199 16.3897H12.3283V5.7808C12.3283 5.65437 12.4311 5.55154 12.5575 5.55154H14.1907C14.3171 5.55154 14.4199 5.65437 14.4199 5.7808V16.3897ZM2.39988 10.1045C2.39988 10.2885 2.25073 10.4376 2.06675 10.4376C1.88277 10.4376 1.73362 10.2885 1.73362 10.1045C1.73362 9.92049 1.88277 9.77134 2.06675 9.77134C2.25073 9.77134 2.39988 9.92049 2.39988 10.1045Z" fill="#FFC700"/>
</svg>
