<svg width="14" height="14" viewBox="0 0 14 14" fill="none" xmlns="http://www.w3.org/2000/svg">
<path d="M3.10232 1.0835C4.32615 1.0835 5.31824 2.07558 5.31824 3.29942C5.31824 4.52325 4.32615 5.51534 3.10232 5.51534C1.87848 5.51534 0.886394 4.52325 0.886394 3.29942C0.887594 2.07609 1.87899 1.0847 3.10232 1.0835ZM3.10232 4.7767C3.91819 4.7767 4.5796 4.11529 4.5796 3.29942C4.5796 2.48354 3.91819 1.82214 3.10232 1.82214C2.28644 1.82214 1.62503 2.48354 1.62503 3.29942C1.62503 4.11529 2.28644 4.7767 3.10232 4.7767Z" fill="#FFC700"/>
<path d="M1.7235 5.51514H1.80485L1.87758 5.55312C2.64889 5.9763 3.55571 5.9763 4.32702 5.55312L4.39975 5.51514H4.4811C5.43246 5.51637 6.20347 6.36605 6.20459 7.4145V9.69373C6.20459 10.3231 5.74162 10.8333 5.17049 10.8333H1.03411C0.462983 10.8333 9.05991e-06 10.3231 9.05991e-06 9.69373V7.4145C0.00112915 6.36605 0.772135 5.51637 1.7235 5.51514ZM0.689407 9.69373C0.689407 9.90352 0.843746 10.0736 1.03411 10.0736H5.17049C5.36085 10.0736 5.51519 9.90352 5.51519 9.69373V7.4145C5.51511 6.81658 5.09574 6.32037 4.55452 6.27792C3.63352 6.74896 2.57107 6.74896 1.65008 6.27792C1.10886 6.32037 0.689493 6.81658 0.689407 7.4145V9.69373Z" fill="#FFC700"/>
<path d="M9.70831 0C11.4014 0 12.7738 1.37245 12.7738 3.06549C12.7738 4.75854 11.4014 6.13098 9.70831 6.13098C8.01527 6.13098 6.64282 4.75854 6.64282 3.06549C6.64448 1.37315 8.01597 0.00166047 9.70831 0ZM9.70831 5.10915C10.837 5.10915 11.752 4.19417 11.752 3.06549C11.752 1.93682 10.837 1.02183 9.70831 1.02183C8.57964 1.02183 7.66465 1.93682 7.66465 3.06549C7.66465 4.19417 8.57964 5.10915 9.70831 5.10915Z" fill="#FFC700"/>
<path d="M7.8009 6.1311H7.91343L8.01405 6.18365C9.08107 6.76908 10.3356 6.76908 11.4026 6.18365L11.5032 6.1311H11.6157C12.9318 6.13281 13.9985 7.30825 14 8.75867V11.9117C14 12.7825 13.3595 13.4883 12.5694 13.4883H6.84719C6.0571 13.4883 5.41663 12.7825 5.41663 11.9117V8.75867C5.41818 7.30825 6.48478 6.13281 7.8009 6.1311ZM6.37033 11.9117C6.37033 12.202 6.58385 12.4373 6.84719 12.4373H12.5694C12.8328 12.4373 13.0463 12.202 13.0463 11.9117V8.75867C13.0462 7.93151 12.466 7.24506 11.7173 7.18633C10.4432 7.83797 8.97342 7.83797 7.69933 7.18633C6.95061 7.24506 6.37045 7.93151 6.37033 8.75867V11.9117Z" fill="#FFC700"/>
</svg>
