<svg width="15" height="15" viewBox="0 0 15 15" fill="none" xmlns="http://www.w3.org/2000/svg">
<path d="M7.80995 7.13788V3.93098C8.22375 3.98271 8.58582 4.1896 8.89616 4.49995L8.94788 4.55167C9.10306 4.70685 9.30995 4.65512 9.46513 4.55167C9.6203 4.3965 9.56857 4.1896 9.46513 4.03443C9.05133 3.56892 8.48237 3.31029 7.86168 3.25857V2.48271C7.86168 2.32754 7.70651 2.17236 7.55133 2.17236C7.34444 2.17236 7.18926 2.27581 7.13754 2.48271V3.20685C5.89616 3.36202 5.01685 4.44823 5.06857 5.6896C5.1203 6.82754 6.05133 7.70685 7.13754 7.86202V11.3275C6.30995 11.1206 5.74099 10.3448 5.79271 9.46547C5.79271 9.31029 5.63754 9.15512 5.48237 9.15512C5.27547 9.15512 5.1203 9.25857 5.06857 9.46547C5.1203 10.6551 5.99961 11.5862 7.13754 11.7413V12.4655C7.13754 12.6724 7.29271 12.8275 7.49961 12.8275C7.7065 12.8275 7.86168 12.6724 7.86168 12.4655V11.7413H7.9134C9.20651 11.6379 10.1893 10.5517 10.0858 9.25857C9.93064 8.12064 8.94788 7.18961 7.80995 7.13788ZM5.74099 5.37926C5.79271 4.65512 6.36168 4.08616 7.03409 3.93098V7.08616C6.25823 6.98271 5.68926 6.20685 5.74099 5.37926ZM7.80995 11.3275V7.86202C8.68926 8.01719 9.36168 8.84478 9.25823 9.72409C9.2065 10.6034 8.58582 11.2241 7.80995 11.3275Z" fill="#FFC700"/>
<path d="M7.5 0C3.36207 0 0 3.36207 0 7.5C0 11.6379 3.36207 15 7.5 15C11.6379 15 15 11.6379 15 7.5C15 3.36207 11.6379 0 7.5 0ZM7.5 14.2759C3.77586 14.2759 0.724138 11.2241 0.724138 7.5C0.724138 3.77586 3.77586 0.724138 7.5 0.724138C11.2241 0.724138 14.2759 3.77586 14.2759 7.5C14.2759 11.2241 11.2241 14.2759 7.5 14.2759Z" fill="#FFC700"/>
</svg>
