<svg width="19" height="17" viewBox="0 0 19 17" fill="none" xmlns="http://www.w3.org/2000/svg">
<path fill-rule="evenodd" clip-rule="evenodd" d="M15.0392 14.2535C15.4818 14.2535 15.8264 14.6097 15.8264 15.0315C15.8264 15.4533 15.4818 15.8095 15.0392 15.8095C14.5967 15.8095 14.2521 15.4533 14.2521 15.0315C14.2521 14.6097 14.5967 14.2535 15.0392 14.2535ZM16.626 15.0315C16.626 14.1436 15.9078 13.438 15.0392 13.438C14.1707 13.438 13.4524 14.1436 13.4524 15.0315C13.4524 15.9195 14.1707 16.625 15.0392 16.625C15.9078 16.625 16.626 15.9195 16.626 15.0315Z" fill="#FFC700"/>
<path fill-rule="evenodd" clip-rule="evenodd" d="M6.33489 14.2535C6.77744 14.2535 7.12205 14.6097 7.12205 15.0315C7.12205 15.4533 6.77744 15.8095 6.33489 15.8095C5.89235 15.8095 5.54774 15.4533 5.54774 15.0315C5.54774 14.6097 5.89235 14.2535 6.33489 14.2535ZM7.9217 15.0315C7.9217 14.1436 7.20345 13.438 6.33489 13.438C5.46634 13.438 4.74809 14.1436 4.74809 15.0315C4.74809 15.9195 5.46634 16.625 6.33489 16.625C7.20345 16.625 7.9217 15.9195 7.9217 15.0315Z" fill="#FFC700"/>
<path fill-rule="evenodd" clip-rule="evenodd" d="M3.55821 0.312508C3.51504 0.129217 3.35429 0 3.16944 0H0.399825C0.179008 0 0 0.18255 0 0.407736C0 0.632923 0.179008 0.815473 0.399825 0.815473H2.85428L5.94595 13.9416C5.98912 14.1249 6.15004 14.2535 6.33489 14.2535H15.0392C15.2601 14.2535 15.4391 14.0716 15.4391 13.8464C15.4391 13.6212 15.2601 13.438 15.0392 13.438L6.64988 13.4386L3.55821 0.312508Z" fill="#FFC700"/>
<path fill-rule="evenodd" clip-rule="evenodd" d="M18.9253 4.91325C18.8502 4.80633 18.7291 4.74289 18.6002 4.74289H4.35643C4.13561 4.74289 3.9566 4.92544 3.9566 5.15063C3.9566 5.37581 4.13561 5.55836 4.35643 5.55836H18.0418L15.9399 11.8575H5.97863C5.75781 11.8575 5.57881 12.04 5.57881 12.2652C5.57881 12.4904 5.75781 12.6729 5.97863 12.6729H16.2262C16.3974 12.6729 16.5496 12.5618 16.6047 12.3965L18.9787 5.28198C19.0202 5.15747 19.0003 5.02018 18.9253 4.91325Z" fill="#FFC700"/>
</svg>
