<svg width="18" height="14" viewBox="0 0 18 14" fill="none" xmlns="http://www.w3.org/2000/svg">
<path d="M9.14239 9.71437H13.7138C13.8852 9.71437 13.9995 9.6001 13.9995 9.42867V6.85724C13.9995 6.68581 13.8852 6.57153 13.7138 6.57153H9.14239C8.97096 6.57153 8.85669 6.68581 8.85669 6.85724V9.42867C8.85666 9.60006 8.97096 9.71437 9.14239 9.71437ZM9.4281 7.14294H13.4281V9.14293H9.4281V7.14294Z" fill="#FFC700"/>
<path d="M1.42828 5.99987H3.71401C3.88544 5.99987 3.99971 5.8856 3.99971 5.71417C3.99971 5.54274 3.88544 5.42847 3.71401 5.42847H1.42828C1.25685 5.42847 1.14258 5.54274 1.14258 5.71417C1.14258 5.8856 1.25685 5.99987 1.42828 5.99987Z" fill="#FFC700"/>
<path d="M4.85675 5.99987H7.14248C7.3139 5.99987 7.42818 5.8856 7.42818 5.71417C7.42818 5.54274 7.3139 5.42847 7.14248 5.42847H4.85675C4.68532 5.42847 4.57104 5.54274 4.57104 5.71417C4.57104 5.8856 4.68532 5.99987 4.85675 5.99987Z" fill="#FFC700"/>
<path d="M1.42828 7.14294H5.14256C5.31399 7.14294 5.42826 7.02866 5.42826 6.85724C5.42826 6.68581 5.31399 6.57153 5.14256 6.57153H1.42828C1.25685 6.57153 1.14258 6.68581 1.14258 6.85724C1.14258 7.02866 1.25685 7.14294 1.42828 7.14294Z" fill="#FFC700"/>
<path d="M7.14309 6.57153H6.28595C6.11452 6.57153 6.00024 6.68581 6.00024 6.85724C6.00024 7.02867 6.11452 7.14294 6.28595 7.14294H7.14309C7.31452 7.14294 7.4288 7.02867 7.4288 6.85724C7.4288 6.68581 7.31452 6.57153 7.14309 6.57153Z" fill="#FFC700"/>
<path d="M16.8857 3.02856C16.6857 2.77142 16.4286 2.62855 16.1143 2.59999L15.4286 2.51689V1.71425V1.14285C15.4286 0.514286 14.9143 1.63478e-09 14.2857 1.63478e-09H1.14285C0.514286 -3.34805e-05 0 0.514253 0 1.14285V1.71429V4.00001V10.2857C0 10.8018 0.346775 11.2406 0.81874 11.3812C0.804342 11.9592 1.24165 12.4609 1.8286 12.5143L15.0286 14C15.0572 14 15.1143 14 15.1429 14C15.7143 14 16.2286 13.5714 16.2857 13.0286L17.1429 3.85715C17.1714 3.57141 17.0857 3.25711 16.8857 3.02856ZM0.57144 1.99999H14.8572V2.74286V3.71428H0.57144V1.99999ZM1.14285 0.571407H14.2857C14.6 0.571407 14.8571 0.82855 14.8571 1.14285V1.42855H0.57144V1.14285C0.57144 0.82855 0.828583 0.571407 1.14285 0.571407ZM0.57144 10.2857V4.28568H14.8572V10.2857C14.8572 10.6 14.6 10.8571 14.2857 10.8571H1.17144H1.14288C0.828583 10.8571 0.57144 10.6 0.57144 10.2857ZM16.5714 3.74284L15.7143 12.9143C15.6857 13.2286 15.4 13.4571 15.0857 13.4286L1.91428 11.9429C1.62857 11.9143 1.42855 11.6857 1.39999 11.4286H14.2857C14.9143 11.4286 15.4286 10.9143 15.4286 10.2857V3.99998V3.05712L16.0857 3.11428C16.2286 3.11428 16.3714 3.19999 16.4571 3.31427C16.5429 3.42854 16.6 3.59997 16.5714 3.74284Z" fill="#FFC700"/>
</svg>
