<svg width="12" height="12" viewBox="0 0 12 12" fill="none" xmlns="http://www.w3.org/2000/svg">
<g clip-path="url(#clip0)">
<path d="M11.5237 0.132259C11.3398 -0.0437607 11.0415 -0.0437607 10.8576 0.132259L0.138458 10.3886C-0.0455017 10.5647 -0.0455017 10.85 0.138458 11.0261C0.230427 11.1141 0.351002 11.1581 0.471554 11.1581C0.592106 11.1581 0.712658 11.1141 0.80465 11.026L11.5237 0.76965C11.7077 0.593653 11.7077 0.308278 11.5237 0.132259Z" fill="#363636"/>
<path d="M11.5232 10.3886L0.804116 0.132259C0.620179 -0.0437607 0.321907 -0.0437607 0.13797 0.132259C-0.04599 0.308256 -0.04599 0.593631 0.13797 0.76965L10.8571 11.0261C10.949 11.1141 11.0696 11.1581 11.1902 11.1581C11.3107 11.1581 11.4313 11.1141 11.5232 11.0261C11.7072 10.85 11.7072 10.5647 11.5232 10.3886Z" fill="#363636"/>
</g>
<defs>
<clipPath id="clip0">
<rect width="11.6612" height="11.1578" fill="white"/>
</clipPath>
</defs>
</svg>
