<svg width="42" height="42" viewBox="0 0 42 42" fill="none" xmlns="http://www.w3.org/2000/svg">
<path d="M21 2.625C31.1309 2.625 39.375 10.8691 39.375 21C39.375 31.1309 31.1309 39.375 21 39.375C10.8691 39.375 2.625 31.1309 2.625 21C2.625 10.8691 10.8691 2.625 21 2.625ZM21 0C9.40283 0 0 9.40283 0 21C0 32.5972 9.40283 42 21 42C32.5972 42 42 32.5972 42 21C42 9.40283 32.5972 0 21 0ZM32.7074 28.0214L32.5895 27.6625C32.3126 26.8371 31.4 25.9758 30.5592 25.745L27.4549 24.8965C26.6141 24.6684 25.4143 24.976 24.7967 25.5938L23.6738 26.7166C19.5928 25.6117 16.391 22.41 15.2887 18.3289L16.4115 17.2061C17.0267 16.5908 17.3344 15.3911 17.1062 14.5477L16.2602 11.4434C16.032 10.6025 15.1655 9.68994 14.3401 9.41309L13.9863 9.29513C13.1583 9.01827 11.9766 9.29767 11.3613 9.91553L9.67969 11.5972C9.37978 11.8945 9.1875 12.7481 9.1875 12.7508C9.13106 18.088 11.2229 23.2277 14.9964 27.0037C18.7596 30.7669 23.8814 32.8562 29.2006 32.81C29.2288 32.81 30.1081 32.6228 30.408 32.3229L32.0896 30.6412C32.7049 30.0285 32.9816 28.8468 32.7074 28.0214Z" fill="#3BE300"/>
</svg>
