<svg width="42" height="42" viewBox="0 0 42 42" fill="none" xmlns="http://www.w3.org/2000/svg">
<path d="M21 0C9.40141 0 0 9.40141 0 21C0 32.5986 9.40141 42 21 42C32.5986 42 42 32.5972 42 21C42 9.40278 32.5986 0 21 0ZM21 39.375C10.8517 39.375 2.625 31.1483 2.625 21C2.625 10.8517 10.8517 2.625 21 2.625C31.1483 2.625 39.375 10.8517 39.375 21C39.375 31.1483 31.1483 39.375 21 39.375ZM28.875 19.6875H22.3125V13.125C22.3125 12.4005 21.7245 11.8125 21 11.8125C20.2755 11.8125 19.6875 12.4005 19.6875 13.125V19.6875H13.125C12.4005 19.6875 11.8125 20.2755 11.8125 21C11.8125 21.7245 12.4005 22.3125 13.125 22.3125H19.6875V28.875C19.6875 29.5995 20.2755 30.1875 21 30.1875C21.7245 30.1875 22.3125 29.5995 22.3125 28.875V22.3125H28.875C29.5995 22.3125 30.1875 21.7245 30.1875 21C30.1875 20.2755 29.5995 19.6875 28.875 19.6875Z" fill="#3BE300"/>
</svg>
