<svg width="20" height="20" viewBox="0 0 20 20" fill="none" xmlns="http://www.w3.org/2000/svg">
<path d="M14.0968 0.447992L14.0964 0.448312L1.87888 12.7864C1.87886 12.7864 1.87885 12.7864 1.87883 12.7865C1.81272 12.8532 1.76516 12.935 1.73928 13.0245L1.73919 13.0248L-0.0789533 19.3939C-0.0789544 19.3939 -0.0789556 19.3939 -0.0789567 19.3939C-0.134238 19.5875 -0.0800328 19.7961 0.0623229 19.9385C0.167883 20.0442 0.309307 20.1011 0.454458 20.1011C0.50537 20.1011 0.556716 20.0941 0.606405 20.08L0.606681 20.0799L6.97027 18.2602L6.97055 18.2601C7.06011 18.2342 7.14186 18.1866 7.20849 18.1204C7.20851 18.1204 7.20852 18.1204 7.20853 18.1204L19.5375 5.89112L19.5378 5.89081C19.9002 5.52821 20.0998 5.04605 20.0998 4.53354C20.0998 4.02103 19.9002 3.53883 19.5378 3.17623L16.8106 0.446673C16.0844 -0.280158 14.8256 -0.281476 14.0968 0.447992ZM3.60277 12.6284L12.1871 3.96687L13.7185 5.49831L5.15174 14.0651L4.58685 12.9349L4.58679 12.9348C4.49262 12.747 4.30097 12.6284 4.09079 12.6284H3.60277ZM4.21782 17.8946L2.10631 15.7831L2.69069 13.7375H3.74795L4.50375 15.2491C4.50375 15.2491 4.50375 15.2491 4.50376 15.2491C4.55737 15.3564 4.64452 15.4435 4.75179 15.4971C4.75179 15.4972 4.7518 15.4972 4.7518 15.4972L6.26344 16.253V17.3103L4.21782 17.8946ZM7.06606 15.4141L5.9359 14.8492L14.5026 6.28251L16.0341 7.81394L7.3726 16.3982V15.9102C7.3726 15.7 7.25396 15.5084 7.06618 15.4142L7.06606 15.4141ZM1.26188 18.7391L1.75783 17.003L2.99794 18.2431L1.26188 18.7391ZM18.755 5.11733L16.8218 7.03327L12.9677 3.17918L14.8823 1.24734C14.8823 1.24729 14.8824 1.24725 14.8824 1.24721C15.187 0.942797 15.7219 0.942839 16.0264 1.24734L18.7537 3.97459C18.9067 4.12763 18.9907 4.33035 18.9907 4.54662C18.9907 4.76292 18.9067 4.96555 18.7551 5.11717C18.7551 5.11722 18.755 5.11728 18.755 5.11733Z" fill="#363636" stroke="#363636" stroke-width="0.2"/>
</svg>
