<svg width="17" height="15" viewBox="0 0 17 15" fill="none" xmlns="http://www.w3.org/2000/svg">
<path d="M9.45389 0C5.48865 0 2.26413 3.17489 2.26413 7.075V7.09839L0.840442 4.9896C0.701132 4.78239 0.415716 4.72558 0.205052 4.8626C-0.0056126 4.99962 -0.0633754 5.28035 0.0759348 5.48755L2.1418 8.54548C2.21656 8.65576 2.33548 8.72594 2.46799 8.74265C2.48838 8.746 2.50537 8.746 2.52576 8.746C2.63788 8.746 2.74661 8.70589 2.83156 8.62903L5.70271 6.08577C5.88959 5.91867 5.90658 5.6346 5.73669 5.44745C5.5668 5.26364 5.27798 5.24693 5.08771 5.41403L3.18153 7.10842V7.075C3.18153 3.66951 5.99492 0.902338 9.45389 0.902338C12.9129 0.902338 15.7296 3.66951 15.7296 7.075C15.7296 10.4805 12.9163 13.2477 9.45729 13.2477C7.78217 13.2477 6.20559 12.606 5.02315 11.4396C4.84306 11.2625 4.55425 11.2625 4.37417 11.4396C4.19408 11.6168 4.19408 11.9008 4.37417 12.078C5.73329 13.4148 7.53753 14.15 9.45729 14.15C13.4191 14.15 16.6471 10.9784 16.6471 7.075C16.6471 3.17155 13.4191 0 9.45389 0Z" fill="#616161"/>
</svg>
