<svg width="17" height="17" viewBox="0 0 17 17" fill="none" xmlns="http://www.w3.org/2000/svg">
<path d="M16.4355 15.4793L12.5242 11.568C13.4938 10.3859 14.0781 8.87187 14.0781 7.22168C14.0781 3.43652 11.0068 0.365234 7.22168 0.365234C3.4332 0.365234 0.365234 3.43652 0.365234 7.22168C0.365234 11.0068 3.4332 14.0781 7.22168 14.0781C8.87187 14.0781 10.3826 13.4971 11.5646 12.5275L15.476 16.4355C15.7416 16.7012 16.1699 16.7012 16.4355 16.4355C16.7012 16.1732 16.7012 15.7416 16.4355 15.4793ZM7.22168 12.7135C4.19023 12.7135 1.72656 10.2498 1.72656 7.22168C1.72656 4.19355 4.19023 1.72656 7.22168 1.72656C10.2498 1.72656 12.7168 4.19355 12.7168 7.22168C12.7168 10.2498 10.2498 12.7135 7.22168 12.7135Z" fill="#616161"/>
</svg>
