<svg width="14" height="14" viewBox="0 0 14 14" fill="none" xmlns="http://www.w3.org/2000/svg">
<path d="M7 14C10.8597 14 14 10.8597 14 7C14 3.14029 10.8597 0 7 0C3.14029 0 0 3.14029 0 7C0 10.8597 3.14029 14 7 14ZM7 0.699429C10.4743 0.699429 13.3006 3.52569 13.3006 7C13.3006 10.4743 10.4743 13.3006 7 13.3006C3.52569 13.3006 0.699429 10.4743 0.699429 7C0.699429 3.52569 3.52569 0.699429 7 0.699429Z" fill="#FF2525"/>
<path d="M5.1477 8.85276C5.21621 8.92127 5.30471 8.95553 5.39606 8.95553C5.48742 8.95553 5.57592 8.92127 5.64443 8.85276L7.00332 7.49386L8.36222 8.85276C8.43073 8.92127 8.51923 8.95553 8.61058 8.95553C8.70194 8.95553 8.79044 8.92127 8.85895 8.85276C8.99598 8.71572 8.99598 8.4959 8.85895 8.35887L7.49435 6.99998L8.85324 5.64109C8.99027 5.50406 8.99027 5.28424 8.85324 5.14721C8.71621 5.01018 8.49639 5.01018 8.35936 5.14721L7.00047 6.5061L5.64158 5.14721C5.50455 5.01018 5.28473 5.01018 5.1477 5.14721C5.01066 5.28424 5.01066 5.50406 5.1477 5.64109L6.50659 6.99998L5.1477 8.35887C5.01066 8.4959 5.01066 8.71572 5.1477 8.85276Z" fill="#FF2525"/>
</svg>
