<svg width="17" height="17" viewBox="0 0 17 17" fill="none" xmlns="http://www.w3.org/2000/svg">
<g clip-path="url(#clip0)">
<path d="M8.08321 -0.0317383C3.60139 -0.0317383 -0.0317383 3.60139 -0.0317383 8.08321C-0.0317383 12.565 3.60139 16.1981 8.08321 16.1981C12.565 16.1981 16.1981 12.565 16.1981 8.08321C16.1928 3.60362 12.5628 -0.0264138 8.08321 -0.0317383ZM8.08321 15.1838C4.16169 15.1838 0.98263 12.0047 0.98263 8.08321C0.98263 4.16169 4.16169 0.98263 8.08321 0.98263C12.0047 0.98263 15.1838 4.16169 15.1838 8.08321C15.1796 12.003 12.003 15.1796 8.08321 15.1838Z" fill="#616161"/>
<path d="M12.0283 4.13845C11.8302 3.94046 11.5091 3.94046 11.3111 4.13845L8.08337 7.36618L4.85564 4.13845C4.66099 3.93699 4.33991 3.93142 4.13845 4.12607C3.93699 4.3206 3.93142 4.64167 4.12607 4.84314C4.13016 4.84735 4.13424 4.85156 4.13845 4.85564L7.36618 8.08337L4.13845 11.3111C3.93699 11.5056 3.93142 11.8267 4.12607 12.0283C4.3206 12.2297 4.64167 12.2353 4.84314 12.0407C4.84735 12.0366 4.85156 12.0325 4.85564 12.0283L8.08337 8.80056L11.3111 12.0283C11.5126 12.2228 11.8336 12.2172 12.0282 12.0158C12.218 11.8193 12.218 11.5076 12.0282 11.3111L8.80056 8.08337L12.0283 4.85564C12.2263 4.65765 12.2263 4.33657 12.0283 4.13845Z" fill="#616161"/>
</g>
<defs>
<clipPath id="clip0">
<rect width="16.2299" height="16.2299" fill="white"/>
</clipPath>
</defs>
</svg>
